{"title":"2Pac - All Eyez On Me [24-bit 44.1kHz flac] MC Lurken","uid":11754441,"size":1657349245,"categoryP":"audio","categoryS":"flac","magnet":"?xt=urn:btih:2bd121c313deb002080ae651c92bf31eb005355e&amp;dn=2Pac+-+All+Eyez+On+Me+%5B24-bit+44.1kHz+flac%5D+MC+Lurken&amp;tr=udp%3A%2F%2Ftracker.openbittorrent.com%3A80&amp;tr=udp%3A%2F%2Fopen.demonii.com%3A1337&amp;tr=udp%3A%2F%2Ftracker.coppersurfer.tk%3A6969&amp;tr=udp%3A%2F%2Fexodus.desync.com%3A6969","seeders":6,"leechers":47,"uploader":"beavis39","files":35,"time":1426333421,"description":"2Pac - All Eyez On Me [24-bit 44.1kHz flac] MC Lurken\n\n\n\nDisc 1:\n\n1 - Ambitionz Az A Ridah\n2 - All Bout U (Feat. Snoop Dogg, Nate Dogg &amp; Dru Down)\n3 - Skandalouz (Feat. Nate Dogg)\n4 - Got My Mind Made Up (Feat. Dat Nigga Daz, Kurupt, Redman &amp; Method Man)\n5 - How Do U Want It (Feat. KC &amp; JoJo)\n6 - 2 Of Amerikaz Most Wanted (Feat. Snoop Dogg)\n7 - No More Pain\n8 - Heartz Of Men\n9 - Life Goes On\n10 - Only God Can Judge Me (Feat. Rappin' 4-Tay)\n11 - Tradin' War Stories (Feat. Dramacydal, C-Bo &amp; Storm)\n12 - California Love (Remix) (Feat. Dr. Dre &amp; Roger Troutman)\n13 - I Ain't Mad At Cha (Feat. Danny Boy)\n14 - What'z Ya Phone # (Feat. Danny Boy)\n\nDisc 2:\n\n1 - Can't C Me (feat. George Clinton)\n2 - Shorty Wanna Be A Thug\n3 - Holla At Me\n4 - Wonda Why They Call U Bitch\n5 - When We Ride (feat. Outlaw Immortalz)\n6 - Thug Passion (feat. Jewell, Dramacydal &amp; Storm)\n7 - Picture Me Rollin' (feat. Danny Boy, Big Syke &amp; CPO)\n8 - Check Out Time (feat. Kurupt &amp; Big Syke)\n9 - Ratha Be Ya Nigga (feat. Richie Rich)\n10 - All Eyez On Me (feat. Big Syke)\n11 - Run Tha Streetz (feat. Michel'le, Mutah &amp; Storm)\n12 - Ain't Hard 2 Find (feat. E-40, B-Legit, C-Bo &amp; Richie Rich)\n13 - Heaven Ain't Hard 2 Find (feat. Danny Boy)\n\n\n\nfoobar2000 1.3.7 / Dynamic Range Meter 1.1.1\nlog date: 2015-03-14 04:54:03\n\n--------------------------------------------------------------------------------\nAnalyzed: 2Pac / All Eyez On Me (Disc 1)\n--------------------------------------------------------------------------------\n\nDR         Peak         RMS     Duration Track\n--------------------------------------------------------------------------------\nDR8        0.00 dB    -8.76 dB      4:39 01-Ambitionz Az A Ridah\nDR8        0.00 dB    -8.80 dB      4:37 02-All Bout U\nDR8        0.00 dB    -8.96 dB      4:09 03-Skandalouz\nDR8        0.00 dB    -8.89 dB      5:13 04-Got My Mind Made Up\nDR8        0.00 dB    -8.50 dB      4:47 05-How Do U Want It\nDR8        0.00 dB    -8.95 dB      4:07 06-2 Of Amerikaz Most Wanted\nDR10       0.00 dB   -10.66 dB      6:15 07-No More Pain\nDR8        0.00 dB    -9.14 dB      4:43 08-Heartz Of Men\nDR8        0.00 dB    -8.75 dB      5:02 09-Life Goes On\nDR8        0.00 dB    -8.91 dB      4:57 10-Only God Can Judge Me\nDR9        0.00 dB    -9.58 dB      5:30 11-Tradin' War Stories\nDR7        0.00 dB    -8.47 dB      6:26 12-California Love (Remix)\nDR8        0.00 dB    -9.33 dB      4:54 13-I Ain't Mad At Cha\nDR8        0.00 dB    -9.30 dB      5:09 14-What'z Ya Phone #\n--------------------------------------------------------------------------------\n\nNumber of tracks:  14\nOfficial DR value: DR8\n\nSamplerate:        44100 Hz\nChannels:          2\nBits per sample:   24\nBitrate:           1713 kbps\nCodec:             FLAC\n\n\n\nfoobar2000 1.3.7 / Dynamic Range Meter 1.1.1\nlog date: 2015-03-14 04:54:54\n\n--------------------------------------------------------------------------------\nAnalyzed: 2Pac / All Eyez On Me (Disc 2)\n--------------------------------------------------------------------------------\n\nDR         Peak         RMS     Duration Track\n--------------------------------------------------------------------------------\nDR7        0.00 dB    -8.17 dB      5:31 01-Can't C Me\nDR7        0.00 dB    -8.46 dB      3:52 02-Shorty Wanna Be A Thug\nDR7        0.00 dB    -7.90 dB      4:55 03-Holla At Me\nDR7        0.00 dB    -8.06 dB      4:19 04-Wonda Why They Call U Bitch\nDR8        0.00 dB    -9.87 dB      5:09 05-When We Ride\nDR8        0.00 dB    -9.07 dB      5:08 06-Thug Passion\nDR8        0.00 dB    -8.61 dB      5:15 07-Picture Me Rollin'\nDR8        0.00 dB    -8.60 dB      4:39 08-Check Out Time\nDR8        0.00 dB    -9.39 dB      4:14 09-Ratha Be Ya Nigga (feat. Richie Rich)\nDR9        0.00 dB    -9.93 dB      5:08 10-All Eyez On Me (feat. Big Syke)\nDR8        0.00 dB    -9.24 dB      5:17 11-Run Tha Streetz\nDR8        0.00 dB    -8.71 dB      4:29 12-Ain't Hard 2 Find\nDR8        0.00 dB    -9.70 dB      3:59 13-Heaven Ain't Hard 2 Find\n--------------------------------------------------------------------------------\n\nNumber of tracks:  13\nOfficial DR value: DR8\n\nSamplerate:        44100 Hz\nChannels:          2\nBits per sample:   24\nBitrate:           1635 kbps\nCodec:             FLAC","torrent":{"xt":"urn:btih:2bd121c313deb002080ae651c92bf31eb005355e","amp;dn":"2Pac+-+All+Eyez+On+Me+%5B24-bit+44.1kHz+flac%5D+MC+Lurken","amp;tr":["udp%3A%2F%2Ftracker.openbittorrent.com%3A80","udp%3A%2F%2Fopen.demonii.com%3A1337","udp%3A%2F%2Ftracker.coppersurfer.tk%3A6969","udp%3A%2F%2Fexodus.desync.com%3A6969"],"infoHash":"2bd121c313deb002080ae651c92bf31eb005355e","infoHashBuffer":{"type":"Buffer","data":[43,209,33,195,19,222,176,2,8,10,230,81,201,43,243,30,176,5,53,94]},"announce":[],"urlList":[]}}